#N canvas 283 34 1012 792 10;
#X floatatom 185 398 5 0 0 0 - - -;
#X floatatom 365 398 5 0 0 0 - - -;
#X floatatom 535 398 5 0 0 0 - - -;
#X text 155 399 Red;
#X text 323 399 Green;
#X text 499 399 Blue;
#X text 182 638 Midi card is set to channel 1 Each color takes to controles
: # and #+64. PWM is made over 14bits therefore values vary between
0 and 16383;
#X obj 185 195 vsl 15 128 168.38 17006 1 0 empty empty empty 0 -9 0
10 -258113 -1 -1 10934 1;
#X obj 365 195 vsl 15 128 168.38 17006 1 0 empty empty empty 0 -9 0
10 -4034 -1 -1 10206 1;
#X obj 535 195 vsl 15 128 168.38 17006 1 0 empty empty empty 0 -9 0
10 -4160 -1 -1 8332 1;
#X floatatom 290 177 5 0 0 0 - - -;
#X obj 290 35 vsl 15 128 168.38 17006 1 0 empty empty empty 0 -9 0
10 -262144 -1 -1 12700 1;
#X msg 215 375 0;
#X msg 409 375 0;
#X msg 579 375 0;
#X obj 185 331 - 168;
#X obj 185 353 * 1;
#X obj 185 375 int;
#X obj 365 331 - 168;
#X obj 365 375 int;
#X obj 535 331 - 168;
#X obj 535 375 int;
#X obj 800 15 gemhead;
#X obj 800 157 pix_film;
#X obj 878 22 openpanel;
#X msg 878 88 open \$1;
#X msg 872 133 auto \$1;
#X obj 800 269 pix_draw;
#X obj 800 239 pix_mean_color;
#X obj 881 269 t l l;
#X obj 908 299 unpack 0 0 0 0;
#X floatatom 908 363 7 0 0 0 - - -;
#X floatatom 935 422 7 0 0 0 - - -;
#X floatatom 962 363 7 0 0 0 - - -;
#X obj 908 343 int;
#X obj 962 343 int;
#X obj 935 403 int;
#X obj 845 179 bng 15 250 50 0 empty empty empty 17 7 0 10 -262144
-1 -1;
#X obj 878 66 symbol;
#X obj 845 199 t b b;
#X msg 872 220 0;
#X obj 878 44 t b s b;
#X msg 922 66 0;
#X obj 908 321 * 16383;
#X obj 962 321 * 16383;
#X obj 935 381 * 16383;
#X text 408 353 0.6;
#X text 574 352 0.7;
#X obj 365 353 * 1;
#X obj 535 353 * 1;
#X obj 185 165 r vRed;
#X obj 365 165 r vGreen;
#X obj 535 165 r vBlue;
#X obj 908 454 s vRed;
#X obj 935 474 s vGreen;
#X obj 962 494 s vBlue;
#N canvas 0 22 464 465 outRed 0;
#X obj -145 117 t f f;
#X obj -145 199 & 127;
#X floatatom -145 221 5 0 0 0 - - -;
#X msg -145 240 \$1 0 1;
#X obj -85 155 / 128;
#X obj -85 177 int;
#X obj -85 199 change;
#X floatatom -85 221 5 0 0 0 - - -;
#X msg -85 240 \$1 64 1;
#X obj -145 282 ctlout;
#X obj -145 97 clip 0 16383;
#X obj -145 77 inlet;
#X connect 0 0 1 0;
#X connect 0 1 4 0;
#X connect 1 0 2 0;
#X connect 2 0 3 0;
#X connect 3 0 9 0;
#X connect 4 0 5 0;
#X connect 5 0 6 0;
#X connect 6 0 7 0;
#X connect 7 0 8 0;
#X connect 8 0 9 0;
#X connect 10 0 0 0;
#X connect 11 0 10 0;
#X restore 185 465 pd outRed;
#N canvas 0 22 450 300 outGreen 0;
#X obj 125 107 t f f;
#X obj 125 189 & 127;
#X floatatom 125 211 5 0 0 0 - - -;
#X obj 185 145 / 128;
#X obj 185 167 int;
#X obj 185 189 change;
#X floatatom 185 211 5 0 0 0 - - -;
#X obj 125 272 ctlout;
#X obj 125 87 clip 0 16383;
#X msg 125 230 \$1 1 1;
#X msg 185 230 \$1 65 1;
#X obj 125 67 inlet;
#X connect 0 0 1 0;
#X connect 0 1 3 0;
#X connect 1 0 2 0;
#X connect 2 0 9 0;
#X connect 3 0 4 0;
#X connect 4 0 5 0;
#X connect 5 0 6 0;
#X connect 6 0 10 0;
#X connect 8 0 0 0;
#X connect 9 0 7 0;
#X connect 10 0 7 0;
#X connect 11 0 8 0;
#X restore 365 464 pd outGreen;
#N canvas 0 22 450 300 outBlue 0;
#X obj 165 107 t f f;
#X obj 165 189 & 127;
#X floatatom 165 211 5 0 0 0 - - -;
#X obj 225 145 / 128;
#X obj 225 167 int;
#X obj 225 189 change;
#X floatatom 225 211 5 0 0 0 - - -;
#X obj 165 272 ctlout;
#X obj 165 87 clip 0 16383;
#X msg 165 230 \$1 2 1;
#X msg 225 230 \$1 66 1;
#X obj 165 67 inlet;
#X connect 0 0 1 0;
#X connect 0 1 3 0;
#X connect 1 0 2 0;
#X connect 2 0 9 0;
#X connect 3 0 4 0;
#X connect 4 0 5 0;
#X connect 5 0 6 0;
#X connect 6 0 10 0;
#X connect 8 0 0 0;
#X connect 9 0 7 0;
#X connect 10 0 7 0;
#X connect 11 0 8 0;
#X restore 535 464 pd outBlue;
#X obj 185 437 * 1;
#X obj 365 436 * 1;
#X obj 535 435 * 1;
#X obj 33 265 vsl 15 128 0 100 0 1 empty empty empty 0 -9 0 10 -262144
-1 -1 12700 1;
#X floatatom 33 421 5 0 0 0 - - -;
#X text 25 244 Dimmer;
#X text 281 12 White;
#X text 217 353 1;
#X obj 33 401 / 100;
#X obj 232 155 vsl 15 128 0 100 0 1 empty empty empty 0 -9 0 10 -262144
-1 -1 12700 1;
#X floatatom 232 311 5 0 0 0 - - -;
#X obj 232 291 / 100;
#X text 135 352 balance;
#X text 317 352 balance;
#X text 483 355 balance;
#X msg 32 142 create \, 1;
#X msg 98 142 destroy;
#X obj 32 112 loadbang;
#X obj 878 -1 r open;
#X obj 872 110 r play;
#X obj 362 20 bng 15 250 50 0 empty empty empty 17 7 0 10 -4034 -1
-1;
#X obj 362 41 s open;
#X obj 362 70 tgl 15 0 empty empty empty 17 7 0 10 -260097 -1 -1 1
1;
#X obj 362 93 s play;
#X text 385 16 ouverture Video;
#X text 387 69 Play/Pause;
#X text 13 -56 Au démarage aller dans Pd-extended -> Preference ->
MIDI settings... Dans midi output 1 : USB midi cable \, puis cliquer
sur apply;
#X obj 232 333 t b f;
#X obj 422 155 vsl 15 128 0 100 0 1 empty empty empty 0 -9 0 10 -262144
-1 -1 11100 1;
#X floatatom 422 311 5 0 0 0 - - -;
#X obj 422 291 / 100;
#X obj 422 333 t b f;
#X obj 592 155 vsl 15 128 0 100 0 1 empty empty empty 0 -9 0 10 -262144
-1 -1 10200 1;
#X floatatom 592 311 5 0 0 0 - - -;
#X obj 592 291 / 100;
#X obj 592 333 t b f;
#X obj 32 166 gemwin 24;
#X text 94 166 framerate;
#X connect 0 0 59 0;
#X connect 1 0 60 0;
#X connect 2 0 61 0;
#X connect 7 0 15 0;
#X connect 8 0 18 0;
#X connect 9 0 20 0;
#X connect 10 0 7 0;
#X connect 10 0 8 0;
#X connect 10 0 9 0;
#X connect 11 0 10 0;
#X connect 12 0 0 0;
#X connect 13 0 1 0;
#X connect 14 0 2 0;
#X connect 15 0 16 0;
#X connect 16 0 17 0;
#X connect 17 0 0 0;
#X connect 18 0 48 0;
#X connect 19 0 1 0;
#X connect 20 0 49 0;
#X connect 21 0 2 0;
#X connect 22 0 23 0;
#X connect 23 0 28 0;
#X connect 23 2 37 0;
#X connect 24 0 41 0;
#X connect 25 0 23 0;
#X connect 26 0 23 0;
#X connect 28 0 27 0;
#X connect 28 1 29 0;
#X connect 29 1 30 0;
#X connect 30 0 43 0;
#X connect 30 1 45 0;
#X connect 30 2 44 0;
#X connect 31 0 53 0;
#X connect 32 0 54 0;
#X connect 33 0 55 0;
#X connect 34 0 31 0;
#X connect 35 0 33 0;
#X connect 36 0 32 0;
#X connect 37 0 39 0;
#X connect 38 0 25 0;
#X connect 39 0 38 0;
#X connect 39 1 40 0;
#X connect 40 0 23 1;
#X connect 41 0 38 0;
#X connect 41 1 38 1;
#X connect 41 2 42 0;
#X connect 42 0 23 1;
#X connect 43 0 34 0;
#X connect 44 0 35 0;
#X connect 45 0 36 0;
#X connect 48 0 19 0;
#X connect 49 0 21 0;
#X connect 50 0 7 0;
#X connect 51 0 8 0;
#X connect 52 0 9 0;
#X connect 59 0 56 0;
#X connect 60 0 57 0;
#X connect 61 0 58 0;
#X connect 62 0 67 0;
#X connect 63 0 59 1;
#X connect 63 0 60 1;
#X connect 63 0 61 1;
#X connect 67 0 63 0;
#X connect 68 0 70 0;
#X connect 69 0 86 0;
#X connect 70 0 69 0;
#X connect 74 0 95 0;
#X connect 75 0 95 0;
#X connect 76 0 74 0;
#X connect 77 0 24 0;
#X connect 78 0 26 0;
#X connect 79 0 80 0;
#X connect 81 0 82 0;
#X connect 86 0 16 0;
#X connect 86 1 16 1;
#X connect 87 0 89 0;
#X connect 88 0 90 0;
#X connect 89 0 88 0;
#X connect 90 0 48 0;
#X connect 90 1 48 1;
#X connect 91 0 93 0;
#X connect 92 0 94 0;
#X connect 93 0 92 0;
#X connect 94 0 49 0;
#X connect 94 1 49 1;
