#N canvas 454 76 818 582 10;
#X obj 92 20 bng 15 250 50 0 empty empty empty 17 7 0 10 -4034 -1 -1
;
#X obj 92 41 s open;
#X obj 92 90 tgl 15 0 empty empty empty 17 7 0 10 -260097 -1 -1 0 1
;
#X obj 92 113 s play;
#X text 115 16 ouverture Video;
#X text 117 89 Play/Pause;
#X msg 92 172 create \, 1;
#X msg 158 172 destroy;
#X obj 92 142 loadbang;
#X obj 92 196 gemwin 24;
#X text 154 196 framerate;
#X obj 380 25 gemhead;
#X obj 380 167 pix_film;
#X obj 458 32 openpanel;
#X msg 458 98 open \$1;
#X msg 452 143 auto \$1;
#X obj 380 289 pix_draw;
#X obj 380 259 pix_mean_color;
#X obj 425 189 bng 15 250 50 0 empty empty empty 17 7 0 10 -262144
-1 -1;
#X obj 458 76 symbol;
#X obj 458 54 t b s b;
#X msg 502 76 0;
#X obj 458 9 r open;
#X obj 452 120 r play;
#X obj 92 379 textfile;
#X msg 146 320 write ./data/test.txt;
#X obj 461 289 list prepend add;
#X obj 461 311 list trim;
#X obj 461 373 spigot 0;
#X obj 461 395 s toText;
#X obj 506 353 r play;
#X obj 455 209 s writeFile;
#X obj 146 299 r writeFile;
#X msg 145 270 clear;
#X obj 145 249 r open;
#X msg 425 209 0;
#X floatatom 516 375 5 0 0 0 - - -, f 5;
#X obj 146 349 r toText;
#X obj 425 231 s endVideo;
#X obj 92 69 r endVideo;
#X connect 0 0 1 0;
#X connect 2 0 3 0;
#X connect 6 0 9 0;
#X connect 7 0 9 0;
#X connect 8 0 6 0;
#X connect 11 0 12 0;
#X connect 12 0 17 0;
#X connect 12 2 18 0;
#X connect 13 0 20 0;
#X connect 14 0 12 0;
#X connect 15 0 12 0;
#X connect 17 0 16 0;
#X connect 17 1 26 0;
#X connect 18 0 31 0;
#X connect 18 0 35 0;
#X connect 19 0 14 0;
#X connect 20 0 19 0;
#X connect 20 1 19 1;
#X connect 20 2 21 0;
#X connect 21 0 12 1;
#X connect 22 0 13 0;
#X connect 23 0 15 0;
#X connect 25 0 24 0;
#X connect 26 0 27 0;
#X connect 27 0 28 0;
#X connect 28 0 29 0;
#X connect 30 0 28 1;
#X connect 30 0 36 0;
#X connect 32 0 25 0;
#X connect 33 0 24 0;
#X connect 34 0 33 0;
#X connect 35 0 38 0;
#X connect 37 0 24 0;
#X connect 39 0 2 0;
